<svg width="50" height="49" viewBox="0 0 50 49" fill="none" xmlns="http://www.w3.org/2000/svg">
<path fill-rule="evenodd" clip-rule="evenodd" d="M2.09534 47.7831L5.38211 35.8261C3.35441 32.3271 2.2881 28.3565 2.28932 24.2897C2.29542 11.5668 12.6852 1.21582 25.4541 1.21582C31.6507 1.21825 37.4654 3.62181 41.8392 7.98274C46.2118 12.3449 48.6201 18.1416 48.6177 24.308C48.6128 37.0309 38.2206 47.3831 25.4541 47.3831H25.4444C21.5683 47.3819 17.7581 46.4129 14.375 44.5735L2.09534 47.7831Z" fill="white"/>
<path fill-rule="evenodd" clip-rule="evenodd" d="M2.09538 48.3909C1.93434 48.3909 1.77818 48.3277 1.66227 48.211C1.50977 48.0566 1.44999 47.8317 1.50733 47.6238L4.727 35.9087C2.73102 32.3757 1.67813 28.3637 1.68057 24.2909C1.68545 11.2312 12.3498 0.60791 25.4542 0.60791C31.8105 0.610342 37.7826 3.07712 42.2711 7.55355C46.7596 12.0312 49.2302 17.9811 49.2278 24.3079C49.2229 37.3664 38.5573 47.9909 25.4542 47.9909C21.5635 47.9897 17.7143 47.0329 14.2982 45.2227L2.25033 48.3703C2.19909 48.3849 2.14785 48.3909 2.09538 48.3909Z" fill="white"/>
<path fill-rule="evenodd" clip-rule="evenodd" d="M25.4542 1.21576C31.6508 1.21819 37.4654 3.62175 41.8393 7.98268C46.2119 12.3448 48.6202 18.1416 48.6178 24.3079C48.6129 37.0308 38.2206 47.383 25.4542 47.383H25.4444C21.5684 47.3818 17.7582 46.4129 14.3751 44.5734L2.09541 47.783L5.38219 35.826C3.35449 32.3271 2.28818 28.3564 2.2894 24.2897C2.2955 11.5667 12.6853 1.21576 25.4542 1.21576ZM25.4542 0C12.0143 0 1.07547 10.8956 1.06937 24.2897C1.06815 28.3831 2.10517 32.417 4.07187 35.9877L0.918081 47.4633C0.803398 47.8827 0.920521 48.3301 1.22797 48.6389C1.45978 48.8723 1.77333 49 2.09541 49C2.19912 49 2.30282 48.9866 2.4053 48.9599L14.2238 45.8718C17.674 47.6566 21.5415 48.5988 25.4444 48.6C38.8941 48.6 49.8329 37.7032 49.839 24.3091C49.8415 17.8182 47.3075 11.7151 42.7043 7.12435C38.0986 2.53243 31.9728 0.00243152 25.4542 0Z" fill="#CFD8DC"/>
<path fill-rule="evenodd" clip-rule="evenodd" d="M39.0722 10.7379C35.4365 7.11248 30.6039 5.11499 25.4603 5.11377C14.8411 5.11377 6.20447 13.7165 6.19959 24.2912C6.19837 27.9154 7.21588 31.4435 9.14353 34.4987L9.60226 35.2245L7.65631 42.3014L14.9436 40.3976L15.6475 40.8134C18.6025 42.5616 21.9917 43.4856 25.4469 43.4868H25.4542C36.066 43.4868 44.7027 34.8829 44.7063 24.307C44.7075 19.1825 42.7079 14.3633 39.0722 10.7379Z" fill="#40C351"/>
<path fill-rule="evenodd" clip-rule="evenodd" d="M19.6639 14.6436C19.2308 13.6832 18.7745 13.6637 18.3609 13.6467C18.023 13.6321 17.6374 13.6333 17.2519 13.6333C16.8664 13.6333 16.2393 13.778 15.7085 14.3555C15.1778 14.933 13.6821 16.3275 13.6821 19.165C13.6821 22.0026 15.7561 24.7454 16.0453 25.1296C16.3344 25.5137 20.0494 31.5232 25.9324 33.8356C30.8211 35.7565 31.8167 35.3748 32.8781 35.2787C33.9395 35.1827 36.3027 33.8842 36.7846 32.5372C37.2666 31.1901 37.2666 30.0364 37.1226 29.7956C36.9774 29.5549 36.5919 29.4115 36.0136 29.1221C35.4353 28.8328 32.5889 27.4383 32.0582 27.2462C31.5275 27.0541 31.142 26.9581 30.7552 27.5355C30.3697 28.1118 29.2607 29.4115 28.9227 29.7956C28.5848 30.181 28.2468 30.2297 27.6685 29.9403C27.0902 29.651 25.226 29.0431 23.0141 27.0784C21.2939 25.5502 20.1324 23.6621 19.7944 23.0846C19.4565 22.5084 19.7578 22.1959 20.0482 21.9078C20.3081 21.6488 20.6265 21.2343 20.9169 20.8975C21.206 20.5607 21.3024 20.32 21.4952 19.9358C21.6879 19.5504 21.5916 19.2137 21.4464 18.9255C21.3036 18.6362 20.1788 15.784 19.6639 14.6436Z" fill="white"/>
</svg>
